<svg version="1.1" viewBox="0.0 0.0 869.2913385826772 226.77165354330708" fill="none" stroke="none" stroke-linecap="square" stroke-miterlimit="10" xmlns:xlink="http://www.w3.org/1999/xlink" xmlns="http://www.w3.org/2000/svg"><clipPath id="p.0"><path d="m0 0l869.2913 0l0 226.77165l-869.2913 0l0 -226.77165z" clip-rule="nonzero"/></clipPath><g clip-path="url(#p.0)"><path fill="#000000" fill-opacity="0.0" d="m0 0l869.2913 0l0 226.77165l-869.2913 0z" fill-rule="evenodd"/><path fill="#3d85c6" d="m143.13632 37.674057l127.5896 0l0 0c16.71457 0 30.264404 4.215996 30.264404 9.416691c0 5.200695 -13.549835 9.416695 -30.264404 9.416695l-127.5896 0l0 0c-16.714577 0 -30.26442 -4.2159996 -30.26442 -9.416695c0 -5.200695 13.549843 -9.416691 30.26442 -9.416691z" fill-rule="evenodd"/><path fill="#3d85c6" d="m143.13632 105.48736l127.5896 0l0 0c16.71457 0 30.264404 4.215996 30.264404 9.416695c0 5.200691 -13.549835 9.416687 -30.264404 9.416687l-127.5896 0l0 0c-16.714577 0 -30.26442 -4.215996 -30.26442 -9.416687c0 -5.200699 13.549843 -9.416695 30.26442 -9.416695z" fill-rule="evenodd"/><path fill="#3d85c6" d="m128.00412 60.27849l63.794785 0l0 0c8.357285 0 15.132217 4.215996 15.132217 9.416695c0 5.200699 -6.774933 9.416695 -15.132217 9.416695l-63.794785 0l0 0c-8.357292 0 -15.132217 -4.215996 -15.132217 -9.416695c0 -5.200699 6.774925 -9.416695 15.132217 -9.416695z" fill-rule="evenodd"/><path fill="#3d85c6" d="m128.00412 82.88292l63.794785 0l0 0c8.357285 0 15.132217 4.2160034 15.132217 9.416695c0 5.200699 -6.774933 9.416695 -15.132217 9.416695l-63.794785 0l0 0c-8.357292 0 -15.132217 -4.215996 -15.132217 -9.416695c0 -5.200691 6.774925 -9.416695 15.132217 -9.416695z" fill-rule="evenodd"/><path fill="#3d85c6" d="m259.68802 60.27849l63.79477 0l0 0c8.3573 0 15.132233 4.215996 15.132233 9.416695c0 5.200699 -6.774933 9.416695 -15.132233 9.416695l-63.79477 0l0 0c-8.3573 0 -15.132217 -4.215996 -15.132217 -9.416695c0 -5.200699 6.7749176 -9.416695 15.132217 -9.416695z" fill-rule="evenodd"/><path fill="#3d85c6" d="m259.68802 82.88292l63.79477 0l0 0c8.3573 0 15.132233 4.2160034 15.132233 9.416695c0 5.200699 -6.774933 9.416695 -15.132233 9.416695l-63.79477 0l0 0c-8.3573 0 -15.132217 -4.215996 -15.132217 -9.416695c0 -5.200691 6.7749176 -9.416695 15.132217 -9.416695z" fill-rule="evenodd"/><path fill="#3d85c6" d="m128.00412 128.0918l63.794785 0l0 0c8.357285 0 15.132217 4.215988 15.132217 9.416687c0 5.200699 -6.774933 9.416687 -15.132217 9.416687l-63.794785 0l0 0c-8.357292 0 -15.132217 -4.215988 -15.132217 -9.416687c0 -5.200699 6.774925 -9.416687 15.132217 -9.416687z" fill-rule="evenodd"/><path fill="#3d85c6" d="m128.00412 150.69623l63.794785 0l0 0c8.357285 0 15.132217 4.215988 15.132217 9.416687c0 5.200699 -6.774933 9.416687 -15.132217 9.416687l-63.794785 0l0 0c-8.357292 0 -15.132217 -4.215988 -15.132217 -9.416687c0 -5.200699 6.774925 -9.416687 15.132217 -9.416687z" fill-rule="evenodd"/><path fill="#3d85c6" d="m128.00412 173.30066l63.794785 0l0 0c8.357285 0 15.132217 4.215988 15.132217 9.416687c0 5.200699 -6.774933 9.416702 -15.132217 9.416702l-63.794785 0l0 0c-8.357292 0 -15.132217 -4.2160034 -15.132217 -9.416702c0 -5.200699 6.774925 -9.416687 15.132217 -9.416687z" fill-rule="evenodd"/><path fill="#3d85c6" d="m84.32763 45.208866l38.27841 0l0 0c5.014572 0 9.079689 0.8439598 9.079689 1.8850403c0 1.0410767 -4.065117 1.8850403 -9.079689 1.8850403l-38.27841 0l0 0c-5.014572 0 -9.079689 -0.8439636 -9.079689 -1.8850403c0 -1.0410805 4.065117 -1.8850403 9.079689 -1.8850403z" fill-rule="evenodd"/><path fill="#3d85c6" d="m74.59442 65.929596l76.55298 0l0 0c10.028656 0 18.158478 1.6866531 18.158478 3.7672424c0 2.080597 -8.129822 3.76725 -18.158478 3.76725l-76.55298 0l0 0c-10.028641 0 -18.15847 -1.6866531 -18.15847 -3.76725c0 -2.0805893 8.129829 -3.7672424 18.15847 -3.7672424z" fill-rule="evenodd"/><path fill="#3d85c6" d="m48.257645 111.138466l76.55298 0l0 0c10.028656 0 18.158478 1.6866531 18.158478 3.7672424c0 2.0805893 -8.129822 3.7672424 -18.158478 3.7672424l-76.55298 0l0 0c-10.028645 0 -18.15847 -1.6866531 -18.15847 -3.7672424c0 -2.0805893 8.129826 -3.7672424 18.15847 -3.7672424z" fill-rule="evenodd"/><path fill="#3d85c6" d="m93.40641 88.534035l76.55297 0l0 0c10.028656 0 18.158478 1.6866455 18.158478 3.7672424c0 2.0805893 -8.129822 3.7672424 -18.158478 3.7672424l-76.55297 0l0 0c-10.028648 0 -18.15847 -1.6866531 -18.15847 -3.7672424c0 -2.080597 8.129822 -3.7672424 18.15847 -3.7672424z" fill-rule="evenodd"/><path fill="#3d85c6" d="m78.35682 133.7429l76.552986 0l0 0c10.028641 0 18.158463 1.6866455 18.158463 3.7672424c0 2.0805817 -8.129822 3.7672424 -18.158463 3.7672424l-76.552986 0l0 0c-10.028648 0 -18.15847 -1.6866608 -18.15847 -3.7672424c0 -2.080597 8.129822 -3.7672424 18.15847 -3.7672424z" fill-rule="evenodd"/><path fill="#3d85c6" d="m93.40641 158.23103l76.55297 0l0 0c10.028656 0 18.158478 1.2653046 18.158478 2.8261414c0 1.5608368 -8.129822 2.8261414 -18.158478 2.8261414l-76.55297 0l0 0c-10.028648 0 -18.15847 -1.2653046 -18.15847 -2.8261414c0 -1.5608368 8.129822 -2.8261414 18.15847 -2.8261414z" fill-rule="evenodd"/><path fill="#3d85c6" d="m84.32763 180.83546l38.27841 0l0 0c5.014572 0 9.079689 0.8439636 9.079689 1.8850403c0 1.0410767 -4.065117 1.8850403 -9.079689 1.8850403l-38.27841 0l0 0c-5.014572 0 -9.079689 -0.8439636 -9.079689 -1.8850403c0 -1.0410767 4.065117 -1.8850403 9.079689 -1.8850403z" fill-rule="evenodd"/><path fill="#3d85c6" d="m425.3161 37.674057l127.5896 0l0 0c16.714539 0 30.264404 4.215996 30.264404 9.416691c0 5.200695 -13.549866 9.416695 -30.264404 9.416695l-127.5896 0l0 0c-16.7146 0 -30.264435 -4.2159996 -30.264435 -9.416695c0 -5.200695 13.549835 -9.416691 30.264435 -9.416691z" fill-rule="evenodd"/><path fill="#3d85c6" d="m425.3161 105.48736l127.5896 0l0 0c16.714539 0 30.264404 4.215996 30.264404 9.416695c0 5.200691 -13.549866 9.416687 -30.264404 9.416687l-127.5896 0l0 0c-16.7146 0 -30.264435 -4.215996 -30.264435 -9.416687c0 -5.200699 13.549835 -9.416695 30.264435 -9.416695z" fill-rule="evenodd"/><path fill="#3d85c6" d="m425.3161 173.30066l127.5896 0l0 0c16.714539 0 30.264404 4.215988 30.264404 9.416687c0 5.200699 -13.549866 9.416702 -30.264404 9.416702l-127.5896 0l0 0c-16.7146 0 -30.264435 -4.2160034 -30.264435 -9.416702c0 -5.200699 13.549835 -9.416687 30.264435 -9.416687z" fill-rule="evenodd"/><path fill="#3d85c6" d="m391.3719 60.27849l63.7948 0l0 0c8.3573 0 15.132202 4.215996 15.132202 9.416695c0 5.200699 -6.7749023 9.416695 -15.132202 9.416695l-63.7948 0l0 0c-8.357269 0 -15.132202 -4.215996 -15.132202 -9.416695c0 -5.200699 6.774933 -9.416695 15.132202 -9.416695z" fill-rule="evenodd"/><path fill="#3d85c6" d="m391.3719 82.88292l63.7948 0l0 0c8.3573 0 15.132202 4.2160034 15.132202 9.416695c0 5.200699 -6.7749023 9.416695 -15.132202 9.416695l-63.7948 0l0 0c-8.357269 0 -15.132202 -4.215996 -15.132202 -9.416695c0 -5.200691 6.774933 -9.416695 15.132202 -9.416695z" fill-rule="evenodd"/><path fill="#3d85c6" d="m523.0558 128.0918l63.7948 0l0 0c8.3573 0 15.132202 4.215988 15.132202 9.416687c0 5.200699 -6.7749023 9.416687 -15.132202 9.416687l-63.7948 0l0 0c-8.3573 0 -15.132202 -4.215988 -15.132202 -9.416687c0 -5.200699 6.7749023 -9.416687 15.132202 -9.416687z" fill-rule="evenodd"/><path fill="#3d85c6" d="m523.0558 150.69623l63.7948 0l0 0c8.3573 0 15.132202 4.215988 15.132202 9.416687c0 5.200699 -6.7749023 9.416687 -15.132202 9.416687l-63.7948 0l0 0c-8.3573 0 -15.132202 -4.215988 -15.132202 -9.416687c0 -5.200699 6.7749023 -9.416687 15.132202 -9.416687z" fill-rule="evenodd"/><path fill="#3d85c6" d="m523.0558 60.27849l63.7948 0l0 0c8.3573 0 15.132202 4.215996 15.132202 9.416695c0 5.200699 -6.7749023 9.416695 -15.132202 9.416695l-63.7948 0l0 0c-8.3573 0 -15.132202 -4.215996 -15.132202 -9.416695c0 -5.200699 6.7749023 -9.416695 15.132202 -9.416695z" fill-rule="evenodd"/><path fill="#3d85c6" d="m391.3719 150.69623l63.7948 0l0 0c8.3573 0 15.132202 4.215988 15.132202 9.416687c0 5.200699 -6.7749023 9.416687 -15.132202 9.416687l-63.7948 0l0 0c-8.357269 0 -15.132202 -4.215988 -15.132202 -9.416687c0 -5.200699 6.774933 -9.416687 15.132202 -9.416687z" fill-rule="evenodd"/><path fill="#3d85c6" d="m669.8719 173.30066l127.5896 0l0 0c16.714539 0 30.264404 4.215988 30.264404 9.416687c0 5.200699 -13.549866 9.416702 -30.264404 9.416702l-127.5896 0l0 0c-16.7146 0 -30.264404 -4.2160034 -30.264404 -9.416702c0 -5.200699 13.549805 -9.416687 30.264404 -9.416687z" fill-rule="evenodd"/><path fill="#3d85c6" d="m654.7397 150.69623l63.7948 0l0 0c8.357239 0 15.132202 4.215988 15.132202 9.416687c0 5.200699 -6.7749634 9.416687 -15.132202 9.416687l-63.7948 0l0 0c-8.3573 0 -15.132202 -4.215988 -15.132202 -9.416687c0 -5.200699 6.7749023 -9.416687 15.132202 -9.416687z" fill-rule="evenodd"/><path fill="#3d85c6" d="m654.7397 128.0918l63.7948 0l0 0c8.357239 0 15.132202 4.215988 15.132202 9.416687c0 5.200699 -6.7749634 9.416687 -15.132202 9.416687l-63.7948 0l0 0c-8.3573 0 -15.132202 -4.215988 -15.132202 -9.416687c0 -5.200699 6.7749023 -9.416687 15.132202 -9.416687z" fill-rule="evenodd"/><path fill="#3d85c6" d="m654.7397 105.48736l63.7948 0l0 0c8.357239 0 15.132202 4.215996 15.132202 9.416695c0 5.200691 -6.7749634 9.416687 -15.132202 9.416687l-63.7948 0l0 0c-8.3573 0 -15.132202 -4.215996 -15.132202 -9.416687c0 -5.200699 6.7749023 -9.416695 15.132202 -9.416695z" fill-rule="evenodd"/><path fill="#3d85c6" d="m654.7397 82.88292l63.7948 0l0 0c8.357239 0 15.132202 4.2160034 15.132202 9.416695c0 5.200699 -6.7749634 9.416695 -15.132202 9.416695l-63.7948 0l0 0c-8.3573 0 -15.132202 -4.215996 -15.132202 -9.416695c0 -5.200691 6.7749023 -9.416695 15.132202 -9.416695z" fill-rule="evenodd"/><path fill="#3d85c6" d="m654.7397 60.27849l63.7948 0l0 0c8.357239 0 15.132202 4.215996 15.132202 9.416695c0 5.200699 -6.7749634 9.416695 -15.132202 9.416695l-63.7948 0l0 0c-8.3573 0 -15.132202 -4.215996 -15.132202 -9.416695c0 -5.200699 6.7749023 -9.416695 15.132202 -9.416695z" fill-rule="evenodd"/><path fill="#3d85c6" d="m654.7397 37.674057l63.7948 0l0 0c8.357239 0 15.132202 4.215996 15.132202 9.416691c0 5.200695 -6.7749634 9.416695 -15.132202 9.416695l-63.7948 0l0 0c-8.3573 0 -15.132202 -4.2159996 -15.132202 -9.416695c0 -5.200695 6.7749023 -9.416691 15.132202 -9.416691z" fill-rule="evenodd"/></g></svg>